<svg width="24" height="24" viewBox="0 0 24 24" fill="none" xmlns="http://www.w3.org/2000/svg">
    <g id="Group">
        <path id="Path" fill-rule="evenodd" clip-rule="evenodd"
            d="M18.6608 2.38577L19.2111 3.3915C19.3029 3.55913 19.4407 3.69695 19.6084 3.78866L20.6139 4.33883C20.8544 4.47039 21.0039 4.72263 21.0039 4.99671C21.0039 5.27078 20.8544 5.52303 20.6139 5.65458L19.6095 6.2042C19.442 6.29586 19.3042 6.43358 19.2125 6.60106L18.6607 7.60857C18.529 7.84888 18.2768 7.99821 18.0028 7.99821C17.7288 7.99821 17.4766 7.84865 17.3451 7.60828L16.7951 6.60302C16.7034 6.43549 16.5657 6.29772 16.3982 6.20599L15.3911 5.65444C15.1508 5.52281 15.0015 5.2706 15.0015 4.99659C15.0015 4.72259 15.151 4.47043 15.3914 4.33889L16.3979 3.78815C16.5655 3.69644 16.7033 3.55861 16.7951 3.39099L17.3451 2.3858C17.4766 2.14537 17.7289 1.99585 18.0029 1.99585C18.277 1.99585 18.5292 2.14535 18.6608 2.38577V2.38577Z"
            stroke="#262729" stroke-width="1.5" stroke-linecap="round" stroke-linejoin="round" />
        <path id="Path_2" fill-rule="evenodd" clip-rule="evenodd"
            d="M2.99658 18.0025V17.5023C2.99658 16.9498 3.44448 16.5019 3.997 16.5019H7.01826C7.35267 16.5018 7.665 16.6689 7.8506 16.947L8.36682 17.7234C8.55242 18.0016 8.86475 18.1686 9.19917 18.1686H14.7995C15.1339 18.1686 15.4462 18.0016 15.6318 17.7234L16.1491 16.948C16.3347 16.6699 16.647 16.5028 16.9814 16.5029H20.0037C20.5562 16.5029 21.0041 16.9508 21.0041 17.5033V18.0025C21.0041 19.66 19.6604 21.0037 18.0028 21.0037H5.99783C4.34029 21.0037 2.99658 19.66 2.99658 18.0025Z"
            stroke="#262729" stroke-width="1.5" stroke-linecap="round" stroke-linejoin="round" />
        <path id="Path_3" d="M20.5037 11.4998C20.5047 13.2989 19.9314 15.0513 18.8672 16.5019"
            stroke="#262729" stroke-width="1.5" stroke-linecap="round" stroke-linejoin="round" />
        <path id="Path_4"
            d="M12.0002 2.99625C8.80007 2.99246 5.86947 4.78766 4.41908 7.64021C2.96869 10.4928 3.24473 13.9184 5.13317 16.5019"
            stroke="#262729" stroke-width="1.5" stroke-linecap="round" stroke-linejoin="round" />
    </g>
</svg>