<svg width="24" height="24" viewBox="0 0 24 24" fill="none" xmlns="http://www.w3.org/2000/svg">
    <g id="Group">
        <g id="Group_2">
            <path id="Path"
                d="M13.6784 10.2927C14.9113 11.5256 14.9113 13.5245 13.6784 14.7574C12.4455 15.9903 10.4466 15.9903 9.21373 14.7574C7.98084 13.5245 7.98084 11.5256 9.21373 10.2927C10.4466 9.05982 12.4455 9.05982 13.6784 10.2927"
                stroke="#262729" stroke-width="1.5" stroke-linecap="round" stroke-linejoin="round" />
            <path id="Path_2" fill-rule="evenodd" clip-rule="evenodd"
                d="M21.971 11.971C21.971 6.464 17.507 2 12 2V5.988C15.304 5.988 17.983 8.666 17.983 11.971H21.971Z"
                stroke="#262729" stroke-width="1.5" stroke-linecap="round" stroke-linejoin="round" />
            <path id="Path_3"
                d="M19.9212 11.971V12.525C19.9212 17.206 16.1272 21 11.4462 21C6.76519 21 2.97119 17.206 2.97119 12.525C2.97119 7.84399 6.76519 4.04999 11.4462 4.04999H12.0002"
                stroke="#262729" stroke-width="1.5" stroke-linecap="round" stroke-linejoin="round" />
        </g>
    </g>
</svg>