<svg width="24" height="24" viewBox="0 0 24 24" fill="none" xmlns="http://www.w3.org/2000/svg">
    <g id="Group">
        <path id="Path" fill-rule="evenodd" clip-rule="evenodd"
            d="M7.99832 21.0037V21.0037C6.34078 21.0037 4.99707 19.66 4.99707 18.0025V18.0025C4.99707 16.3449 6.34078 15.0012 7.99832 15.0012V15.0012C11.8659 15.0012 15.0012 11.8659 15.0012 7.99832V7.99832C15.0012 6.34078 16.3449 4.99707 18.0025 4.99707V4.99707C19.66 4.99707 21.0037 6.34078 21.0037 7.99832V7.99832C21.0037 15.181 15.181 21.0037 7.99832 21.0037Z"
            stroke="#262729" stroke-width="1.5" stroke-linecap="round" stroke-linejoin="round" />
        <path id="Path_2" fill-rule="evenodd" clip-rule="evenodd"
            d="M3.42293 16.4074L4.58701 17.1839C4.8357 17.3503 4.98846 17.6269 4.99698 17.926C5.0055 18.2252 4.86873 18.5099 4.62992 18.6903L3.46585 19.5671C3.1871 19.7764 2.81387 19.8098 2.50235 19.6534C2.19082 19.497 1.99472 19.1777 1.9961 18.8291V17.1758C1.99481 16.8367 2.18048 16.5245 2.47905 16.3637C2.77762 16.2029 3.1405 16.2197 3.42293 16.4074Z"
            stroke="#262729" stroke-width="1.5" stroke-linecap="round" stroke-linejoin="round" />
        <path id="Path_3" fill-rule="evenodd" clip-rule="evenodd"
            d="M19.5976 3.42263L18.8211 4.5867C18.6546 4.8354 18.3781 4.98815 18.0789 4.99667C17.7798 5.0052 17.495 4.86842 17.3147 4.62961L16.4379 3.46555C16.2286 3.1868 16.1951 2.81357 16.3516 2.50204C16.508 2.19052 16.8273 1.99442 17.1759 1.9958H18.8291C19.1683 1.9945 19.4805 2.18017 19.6413 2.47874C19.8021 2.77732 19.7853 3.1402 19.5976 3.42263Z"
            stroke="#262729" stroke-width="1.5" stroke-linecap="round" stroke-linejoin="round" />
    </g>
</svg>