<svg width="24" height="24" viewBox="0 0 24 24" fill="none" xmlns="http://www.w3.org/2000/svg">
    <g id="Group">
        <path id="Path" fill-rule="evenodd" clip-rule="evenodd"
            d="M19.9949 12H4.00532C3.71505 11.9998 3.43879 12.1248 3.2474 12.343C3.05602 12.5613 2.96814 12.8515 3.0063 13.1393C3.36168 15.5949 4.83605 17.7468 6.99772 18.9649V20.0033C6.99772 20.5558 7.44562 21.0038 7.99813 21.0038H16.0021C16.5546 21.0038 17.0025 20.5558 17.0025 20.0033V18.9649C19.1642 17.7468 20.6385 15.5949 20.9939 13.1392C21.0321 12.8515 20.9442 12.5613 20.7528 12.343C20.5614 12.1248 20.2852 11.9998 19.9949 12Z"
            stroke="#262729" stroke-width="1.5" stroke-linecap="round" stroke-linejoin="round" />
        <path id="Path_2"
            d="M18.6831 12C19.5399 10.9961 20.0084 9.71831 20.0037 8.39851V7.99834C20.0037 7.44583 19.5558 6.99792 19.0032 6.99792H18.6031C15.7411 6.99842 13.339 9.15468 13.0308 12"
            stroke="#262729" stroke-width="1.5" stroke-linecap="round" stroke-linejoin="round" />
        <path id="Path_3"
            d="M13.0307 12H6.51344C5.98279 12 5.47387 11.7892 5.09864 11.414L4.68354 10.9989C3.76927 10.0836 3.76959 8.60062 4.68424 7.68572C5.59889 6.77082 7.08188 6.7701 7.99742 7.68411V7.49867H7.99856C7.99837 6.06901 8.7609 4.74785 9.99893 4.03285C11.2369 3.31786 12.7624 3.31765 14.0006 4.03231C15.2388 4.74697 16.0017 6.06793 16.0019 7.49759V7.63728"
            stroke="#262729" stroke-width="1.5" stroke-linecap="round" stroke-linejoin="round" />
    </g>
</svg>