<svg width="24" height="24" viewBox="0 0 24 24" fill="none" xmlns="http://www.w3.org/2000/svg">
    <g id="Group">
        <g id="Group_2">
            <path id="Path"
                d="M21.2678 11.7322C22.2441 12.7085 22.2441 14.2914 21.2678 15.2677C20.2915 16.244 18.7085 16.244 17.7322 15.2677C16.7559 14.2914 16.7559 12.7085 17.7322 11.7322C18.7085 10.7559 20.2915 10.7559 21.2678 11.7322"
                stroke="#262729" stroke-width="1.5" stroke-linecap="round" stroke-linejoin="round" />
            <path id="Path_2"
                d="M6 3H4C2.895 3 2 3.895 2 5V9C2 12.314 4.686 15 8 15C11.314 15 14 12.314 14 9V5C14 3.895 13.105 3 12 3H10"
                stroke="#262729" stroke-width="1.5" stroke-linecap="round" stroke-linejoin="round" />
            <path id="Path_3"
                d="M19.5 16V16.25C19.5 19.426 16.926 22 13.75 22C10.574 22 8 19.426 8 16.25V15"
                stroke="#262729" stroke-width="1.5" stroke-linecap="round" stroke-linejoin="round" />
            <path id="Path_4" d="M6 2V4" stroke="#262729" stroke-width="1.5" stroke-linecap="round"
                stroke-linejoin="round" />
            <path id="Path_5" d="M10 2V4" stroke="#262729" stroke-width="1.5" stroke-linecap="round"
                stroke-linejoin="round" />
        </g>
    </g>
</svg>