<svg width="24" height="24" viewBox="0 0 24 24" fill="none" xmlns="http://www.w3.org/2000/svg">
    <g id="Group">
        <path id="Path" d="M12.0002 2.99622V7.9983" stroke="#262729" stroke-width="1.5"
            stroke-linecap="round" stroke-linejoin="round" />
        <path id="Path_2" d="M6.99805 17.0021H8.99888" stroke="#262729" stroke-width="1.5"
            stroke-linecap="round" stroke-linejoin="round" />
        <path id="Path_3"
            d="M21.0041 9.99919C21.0041 8.89416 20.1083 7.99835 19.0032 7.99835H4.99742C3.89239 7.99835 2.99658 8.89416 2.99658 9.99919"
            stroke="#262729" stroke-width="1.5" stroke-linecap="round" stroke-linejoin="round" />
        <path id="Path_4" fill-rule="evenodd" clip-rule="evenodd"
            d="M19.0033 21.0037H5.24752C4.00436 21.0037 2.99658 19.9959 2.99658 18.7528V8.49851C2.99627 7.9582 3.10587 7.42347 3.31872 6.92685L4.41317 4.36279C4.76708 3.53376 5.58163 2.99598 6.48304 2.99622H17.5166C18.418 2.99598 19.2326 3.53376 19.5865 4.36279L20.687 6.92685C20.898 7.42387 21.0058 7.95856 21.0041 8.49851V19.0029C21.0041 20.1079 20.1083 21.0037 19.0033 21.0037Z"
            stroke="#262729" stroke-width="1.5" stroke-linecap="round" stroke-linejoin="round" />
    </g>
</svg>