<svg width="24" height="24" viewBox="0 0 24 24" fill="none" xmlns="http://www.w3.org/2000/svg">
    <g id="Group">
        <path id="Path"
            d="M15.5918 14.384L15.8579 13.9839C16.9793 12.3027 19.087 11.5799 21.0041 12.2191"
            stroke="#262729" stroke-width="1.5" stroke-linecap="round" stroke-linejoin="round" />
        <path id="Path_2"
            d="M10.0643 12.7933L11.2648 6.80679L12.5754 7.46206C13.062 7.70501 13.6533 7.54915 13.9569 7.09791L15.1014 5.38019C15.3871 4.95087 15.3306 4.37966 14.9664 4.01462L13.5258 2.57402C12.8578 1.90592 11.7906 1.85733 11.0647 2.46198C7.65618 5.30216 5.10704 9.03649 3.70368 13.2455L3.10343 15.0322C2.80401 15.9348 3.1287 16.9272 3.90376 17.4782L5.4354 18.5727C8.39116 20.6845 12.2189 21.1456 15.5916 19.7962L16.6741 21.9611"
            stroke="#262729" stroke-width="1.5" stroke-linecap="round" stroke-linejoin="round" />
        <path id="Path_3" d="M15.5914 13.3005C13.6248 11.9898 11.0632 11.9898 9.09668 13.3005"
            stroke="#262729" stroke-width="1.5" stroke-linecap="round" stroke-linejoin="round" />
    </g>
</svg>