<svg width="24" height="24" viewBox="0 0 24 24" fill="none" xmlns="http://www.w3.org/2000/svg">
    <g id="Group">
        <g id="Group_2">
            <path id="Path" d="M12 5V3" stroke="#262729" stroke-width="1.5" stroke-linecap="round"
                stroke-linejoin="round" />
            <path id="Path_2" d="M2 13H4" stroke="#262729" stroke-width="1.5" stroke-linecap="round"
                stroke-linejoin="round" />
            <path id="Path_3" d="M4.8999 5.90002L5.9999 7.00002" stroke="#262729" stroke-width="1.5"
                stroke-linecap="round" stroke-linejoin="round" />
            <path id="Path_4" d="M19.1 5.90002L18 7.00002" stroke="#262729" stroke-width="1.5"
                stroke-linecap="round" stroke-linejoin="round" />
            <path id="Path_5" d="M22 12.9H20" stroke="#262729" stroke-width="1.5"
                stroke-linecap="round" stroke-linejoin="round" />
            <path id="Path_6"
                d="M3 17.4C4.1 16.9 5.5 16.9 6.6 17.4C7.7 17.9 9.1 17.9 10.2 17.4C11.3 16.9 12.7 16.9 13.8 17.4C14.9 17.9 16.3 17.9 17.4 17.4C18.5 16.9 19.9 16.9 21 17.4"
                stroke="#262729" stroke-width="1.5" stroke-linecap="round" stroke-linejoin="round" />
            <path id="Path_7"
                d="M6.6001 20.6C7.7001 21.1 9.1001 21.1 10.2001 20.6C11.3001 20.1 12.7001 20.1 13.8001 20.6C14.9001 21.1 16.3001 21.1 17.4001 20.6"
                stroke="#262729" stroke-width="1.5" stroke-linecap="round" stroke-linejoin="round" />
            <path id="Path_8" d="M7 13C7 10.2 9.2 8 12 8C14.8 8 17 10.2 17 13" stroke="#262729"
                stroke-width="1.5" stroke-linecap="round" stroke-linejoin="round" />
        </g>
    </g>
</svg>