<svg width="23" height="17" viewBox="0 0 23 17" fill="none" xmlns="http://www.w3.org/2000/svg">
    <path id="Vector"
        d="M22.9998 9.74997C22.9998 9.94888 22.9207 10.1396 22.7801 10.2803C22.6394 10.4209 22.4487 10.5 22.2498 10.5H20.7498V12C20.7498 12.1989 20.6707 12.3896 20.5301 12.5303C20.3894 12.6709 20.1987 12.75 19.9998 12.75C19.8008 12.75 19.6101 12.6709 19.4694 12.5303C19.3288 12.3896 19.2498 12.1989 19.2498 12V10.5H17.7498C17.5508 10.5 17.3601 10.4209 17.2194 10.2803C17.0788 10.1396 16.9998 9.94888 16.9998 9.74997C16.9998 9.55105 17.0788 9.36029 17.2194 9.21964C17.3601 9.07898 17.5508 8.99997 17.7498 8.99997H19.2498V7.49997C19.2498 7.30105 19.3288 7.11029 19.4694 6.96964C19.6101 6.82898 19.8008 6.74997 19.9998 6.74997C20.1987 6.74997 20.3894 6.82898 20.5301 6.96964C20.6707 7.11029 20.7498 7.30105 20.7498 7.49997V8.99997H22.2498C22.4487 8.99997 22.6394 9.07898 22.7801 9.21964C22.9207 9.36029 22.9998 9.55105 22.9998 9.74997ZM17.5744 15.2672C17.7025 15.4196 17.7648 15.6166 17.7475 15.8149C17.7303 16.0133 17.635 16.1966 17.4826 16.3247C17.3302 16.4527 17.1331 16.515 16.9348 16.4977C16.7365 16.4805 16.5531 16.3852 16.4251 16.2328C14.5388 13.9865 11.9457 12.75 9.12476 12.75C6.30382 12.75 3.71069 13.9865 1.82444 16.2328C1.69639 16.3851 1.51309 16.4803 1.31486 16.4974C1.11663 16.5145 0.919705 16.4522 0.767413 16.3242C0.61512 16.1961 0.519933 16.0128 0.502791 15.8146C0.485649 15.6164 0.547957 15.4194 0.676006 15.2672C2.07663 13.6003 3.81851 12.4162 5.75444 11.7825C4.57873 11.0502 3.67349 9.95492 3.17569 8.66235C2.67789 7.36978 2.61461 5.95025 2.99543 4.61852C3.37624 3.28678 4.18043 2.11531 5.28632 1.28132C6.39222 0.447334 7.73964 -0.00378418 9.12476 -0.00378418C10.5099 -0.00378418 11.8573 0.447334 12.9632 1.28132C14.0691 2.11531 14.8733 3.28678 15.2541 4.61852C15.6349 5.95025 15.5716 7.36978 15.0738 8.66235C14.576 9.95492 13.6708 11.0502 12.4951 11.7825C14.431 12.4162 16.1729 13.6003 17.5744 15.2672ZM9.12476 11.25C10.0889 11.25 11.0315 10.9641 11.8332 10.4284C12.6349 9.89271 13.2597 9.13134 13.6287 8.24055C13.9976 7.34976 14.0942 6.36956 13.9061 5.4239C13.718 4.47824 13.2537 3.6096 12.5719 2.92782C11.8901 2.24604 11.0215 1.78174 10.0758 1.59364C9.13016 1.40553 8.14996 1.50207 7.25917 1.87105C6.36838 2.24003 5.60701 2.86487 5.07134 3.66656C4.53567 4.46825 4.24976 5.41078 4.24976 6.37497C4.25124 7.66744 4.76534 8.90655 5.67925 9.82047C6.59317 10.7344 7.83228 11.2485 9.12476 11.25Z"
        fill="#262729" />
</svg>