<svg width="24" height="24" viewBox="0 0 24 24" fill="none" xmlns="http://www.w3.org/2000/svg">
    <path
        d="M5 21H19C20.6569 21 22 19.6569 22 18V9C22 7.34315 20.6569 6 19 6H18.6056C17.6025 6 16.6658 5.4987 16.1094 4.6641L15.8906 4.3359C15.3342 3.5013 14.3975 3 13.3944 3H10.6056C9.60249 3 8.6658 3.5013 8.1094 4.3359L7.8906 4.6641C7.3342 5.4987 6.39751 6 5.39445 6H5C3.34315 6 2 7.34315 2 9V18C2 19.6569 3.34315 21 5 21Z"
        stroke="#262729" stroke-width="1.5" stroke-linecap="round" />
    <circle cx="12" cy="13" r="4.25" stroke="#262729" stroke-width="1.5" />
</svg>