<svg width="24" height="24" viewBox="0 0 24 24" fill="none" xmlns="http://www.w3.org/2000/svg">
    <g id="Tapbar / Chat">
        <path id="Subtract" fill-rule="evenodd" clip-rule="evenodd"
            d="M22 7C22 4.23858 19.7614 2 17 2H7C4.23858 2 2 4.23858 2 7V15.5V21C2 21.412 2.47038 21.6472 2.8 21.4L6 19H17C19.7614 19 22 16.7614 22 14V7ZM13 9.825H8C7.54436 9.825 7.175 9.45564 7.175 9C7.175 8.54436 7.54436 8.175 8 8.175H13C13.4556 8.175 13.825 8.54436 13.825 9C13.825 9.45564 13.4556 9.825 13 9.825ZM8 12.175C7.54436 12.175 7.175 12.5444 7.175 13C7.175 13.4556 7.54436 13.825 8 13.825H16C16.4556 13.825 16.825 13.4556 16.825 13C16.825 12.5444 16.4556 12.175 16 12.175H8Z"
            fill="#D3D6D9" />
    </g>
</svg>