<svg width="16" height="23" viewBox="0 0 16 23" fill="none" xmlns="http://www.w3.org/2000/svg">
    <g clip-path="url(#clip0_394_10118)">
        <path
            d="M11.3151 9.99363C11.3017 9.99363 11.2856 9.99363 11.2722 9.99109C11.2615 9.99109 11.2508 9.99109 11.2401 9.99109C11.2161 9.99109 11.192 9.99109 11.1652 9.99109H4C1.78997 9.99109 0 8.28474 0 6.18365V14.4862C0 17.0864 2.21538 19.1926 4.94448 19.1926H7.45151H12C14.21 19.1926 16 20.8964 16 23.0001V14.6975C16 12.1559 13.9612 10.0828 11.3151 9.99363Z"
            fill="#96E3ED" />
        <path
            d="M12.1124 6.10352e-05C11.5211 1.40079 10.0816 2.38894 8.40134 2.38894H4C1.78997 2.38894 0 4.09274 0 6.19639C0 8.30003 1.78997 10.0038 4 10.0038H8C10.2716 10.0038 12.1124 8.25164 12.1124 6.08942V6.10352e-05Z"
            fill="#00B4CD" />
    </g>
    <defs>
        <clipPath id="clip0_394_10118">
            <rect width="16" height="23" fill="white" />
        </clipPath>
    </defs>
</svg>