<svg width="24" height="24" viewBox="0 0 24 24" fill="none" xmlns="http://www.w3.org/2000/svg">
    <path fill-rule="evenodd" clip-rule="evenodd"
        d="M22 12.0002C22 17.523 17.5228 22.0002 12 22.0002C6.47715 22.0002 2 17.523 2 12.0002C2 6.4773 6.47715 2.00015 12 2.00015C17.5228 2.00015 22 6.4773 22 12.0002ZM8.46967 8.46982C8.76256 8.17693 9.23744 8.17693 9.53033 8.46982L12 10.9395L14.4697 8.46982C14.7626 8.17693 15.2374 8.17693 15.5303 8.46982C15.8232 8.76272 15.8232 9.23759 15.5303 9.53048L13.0607 12.0002L15.5303 14.4698C15.8232 14.7627 15.8232 15.2376 15.5303 15.5305C15.2374 15.8234 14.7626 15.8234 14.4697 15.5305L12 13.0608L9.53033 15.5305C9.23744 15.8234 8.76256 15.8234 8.46967 15.5305C8.17678 15.2376 8.17678 14.7627 8.46967 14.4698L10.9393 12.0002L8.46967 9.53048C8.17678 9.23759 8.17678 8.76272 8.46967 8.46982Z"
        fill="#D3D6D9" />
</svg>