<svg width="24" height="24" viewBox="0 0 24 24" fill="none" xmlns="http://www.w3.org/2000/svg">
    <path fill-rule="evenodd" clip-rule="evenodd"
        d="M6 1.99997H13.5858C13.851 1.99997 14.1054 2.10533 14.2929 2.29286L19.7071 7.70708C19.8946 7.89461 20 8.14897 20 8.41418V20C20 21.1045 19.1046 22 18 22H6C4.89543 22 4 21.1045 4 20V3.99997C4 2.8954 4.89543 1.99997 6 1.99997ZM14 3.99997L18 7.99997H14V3.99997ZM7.25 15C7.25 14.5858 7.58579 14.25 8 14.25H13C13.4142 14.25 13.75 14.5858 13.75 15C13.75 15.4142 13.4142 15.75 13 15.75H8C7.58579 15.75 7.25 15.4142 7.25 15ZM8 17.25C7.58579 17.25 7.25 17.5858 7.25 18C7.25 18.4142 7.58579 18.75 8 18.75H11C11.4142 18.75 11.75 18.4142 11.75 18C11.75 17.5858 11.4142 17.25 11 17.25H8Z"
        fill="#D3D6D9" />
</svg>