<svg width="24" height="24" viewBox="0 0 24 24" fill="none" xmlns="http://www.w3.org/2000/svg">
    <path
        d="M12.4713 11.8044L12.4716 11.804C12.5453 11.728 12.5434 11.6068 12.4675 11.5331C12.3915 11.4594 12.2702 11.4612 12.1965 11.5371C12.1228 11.613 12.1245 11.7343 12.2003 11.8081C12.2762 11.8818 12.3975 11.8802 12.4713 11.8044"
        stroke="#262729" stroke-width="1.5" stroke-linecap="round" stroke-linejoin="round" />
    <path
        d="M3 13.2999C3.32175 13.2504 3.64669 13.2244 3.97222 13.2222V13.2222C5.77717 13.2222 7.50819 13.9392 8.78447 15.2155C10.0608 16.4918 10.7778 18.2228 10.7778 20.0277C10.7748 20.3532 10.7488 20.6781 10.7 20.9999"
        stroke="#262729" stroke-width="1.5" stroke-linecap="round" stroke-linejoin="round" />
    <rect x="3" y="7" width="14" height="14" rx="3" stroke="#262729" stroke-width="1.5"
        stroke-linecap="round" stroke-linejoin="round" />
    <path
        d="M6 7V6C6 4.34315 7.34315 3 9 3H18C19.6569 3 21 4.34315 21 6V15C21 16.6569 19.6569 18 18 18H17"
        stroke="#262729" stroke-width="1.5" stroke-linecap="round" stroke-linejoin="round" />
</svg>