<svg width="24" height="24" viewBox="0 0 24 24" fill="none" xmlns="http://www.w3.org/2000/svg">
    <g id="Tapbar / History">
        <path id="Subtract" fill-rule="evenodd" clip-rule="evenodd"
            d="M12 22C17.5228 22 22 17.5228 22 12C22 6.47715 17.5228 2 12 2C6.47715 2 2 6.47715 2 12C2 17.5228 6.47715 22 12 22ZM13 8C13 7.44772 12.5523 7 12 7C11.4477 7 11 7.44772 11 8V13V13.4142L11.2929 13.7071L13.2929 15.7071C13.6834 16.0976 14.3166 16.0976 14.7071 15.7071C15.0976 15.3166 15.0976 14.6834 14.7071 14.2929L13 12.5858V8Z"
            fill="#D3D6D9" />
    </g>
</svg>