<svg width="48" height="48" viewBox="0 0 48 48" fill="none" xmlns="http://www.w3.org/2000/svg">
    <path
        d="M20.098 29.8124C22.281 28.8192 24.0583 27.1086 25.1341 24.9651C26.21 22.8215 26.5196 20.3743 26.0115 18.0304C25.5034 15.6865 24.2081 13.5872 22.3412 12.0816C20.4743 10.576 18.1482 9.75496 15.7498 9.75496C13.3515 9.75496 11.0254 10.576 9.15848 12.0816C7.29156 13.5872 5.99633 15.6865 5.4882 18.0304C4.98008 20.3743 5.28969 22.8215 6.36555 24.9651C7.44141 27.1086 9.21867 28.8192 11.4017 29.8124C7.24097 30.8908 3.63404 33.4865 1.28985 37.0892C1.23436 37.1717 1.19582 37.2644 1.17647 37.3619C1.15711 37.4593 1.15733 37.5597 1.1771 37.6571C1.19688 37.7545 1.23582 37.847 1.29166 37.9293C1.3475 38.0115 1.41913 38.0818 1.50238 38.1361C1.58563 38.1904 1.67885 38.2276 1.7766 38.2456C1.87436 38.2635 1.97472 38.2619 2.07183 38.2407C2.16894 38.2195 2.26088 38.1793 2.3423 38.1223C2.42372 38.0652 2.49299 37.9926 2.5461 37.9086C3.97623 35.7094 5.93305 33.9022 8.23888 32.6511C10.5447 31.4001 13.1265 30.7448 15.7498 30.7448C18.3732 30.7448 20.955 31.4001 23.2608 32.6511C25.5666 33.9022 27.5235 35.7094 28.9536 37.9086C29.0067 37.9926 29.076 38.0652 29.1574 38.1223C29.2388 38.1793 29.3307 38.2195 29.4279 38.2407C29.525 38.2619 29.6253 38.2635 29.7231 38.2456C29.8208 38.2276 29.9141 38.1904 29.9973 38.1361C30.0806 38.0818 30.1522 38.0115 30.208 37.9293C30.2639 37.847 30.3028 37.7545 30.3226 37.6571C30.3424 37.5597 30.3426 37.4593 30.3232 37.3619C30.3039 37.2644 30.2653 37.1717 30.2098 37.0892C27.8657 33.4865 24.2587 30.8908 20.098 29.8124ZM6.74985 20.2499C6.74985 18.4698 7.27769 16.7298 8.26662 15.2497C9.25555 13.7697 10.6612 12.6161 12.3057 11.9349C13.9502 11.2537 15.7598 11.0755 17.5057 11.4228C19.2515 11.7701 20.8551 12.6272 22.1138 13.8859C23.3725 15.1446 24.2296 16.7482 24.5769 18.494C24.9242 20.2399 24.746 22.0495 24.0648 23.694C23.3836 25.3385 22.23 26.7441 20.75 27.7331C19.2699 28.722 17.5299 29.2499 15.7498 29.2499C13.3637 29.2474 11.0759 28.2984 9.38863 26.6111C7.70134 24.9238 6.75233 22.636 6.74985 20.2499ZM46.4998 38.128C46.3332 38.2362 46.1304 38.2739 45.936 38.2328C45.7416 38.1917 45.5715 38.0751 45.463 37.9086C44.0338 35.7067 42.0757 33.8979 39.7676 32.6474C37.4595 31.3969 34.8749 30.7445 32.2498 30.7499C32.0509 30.7499 31.8602 30.6708 31.7195 30.5302C31.5789 30.3895 31.4998 30.1988 31.4998 29.9999C31.4998 29.8009 31.5789 29.6102 31.7195 29.4695C31.8602 29.3289 32.0509 29.2499 32.2498 29.2499C33.5755 29.2491 34.8846 28.9556 36.0837 28.3901C37.2827 27.8247 38.342 27.0014 39.1859 25.979C40.0298 24.9567 40.6374 23.7605 40.9653 22.476C41.2932 21.1915 41.3333 19.8505 41.0827 18.5487C40.8322 17.247 40.2971 16.0166 39.5158 14.9457C38.7345 13.8747 37.7263 12.9896 36.5632 12.3535C35.4001 11.7174 34.1109 11.3462 32.7876 11.2662C31.4644 11.1863 30.1398 11.3997 28.9086 11.8911C28.8171 11.928 28.7193 11.9466 28.6206 11.9457C28.522 11.9448 28.4245 11.9245 28.3337 11.886C28.2429 11.8474 28.1606 11.7913 28.0914 11.7209C28.0223 11.6506 27.9677 11.5673 27.9308 11.4758C27.8939 11.3843 27.8753 11.2865 27.8762 11.1878C27.8771 11.0892 27.8974 10.9917 27.9359 10.9009C27.9745 10.8101 28.0306 10.7278 28.1009 10.6586C28.1713 10.5895 28.2546 10.5349 28.3461 10.498C30.9071 9.40396 33.7978 9.3721 36.3823 10.4094C38.9668 11.4467 41.0333 13.4682 42.1273 16.0292C43.2214 18.5902 43.2532 21.4809 42.2159 24.0654C41.1786 26.6499 39.1571 28.7165 36.5961 29.8105C40.7583 30.8913 44.3655 33.4905 46.708 37.0967C46.8155 37.2616 46.854 37.462 46.815 37.655C46.7761 37.8479 46.6629 38.0178 46.4998 38.128Z"
        fill="#262729" />
</svg>