<svg width="16" height="16" viewBox="0 0 16 16" fill="none" xmlns="http://www.w3.org/2000/svg">
    <path
        d="M9.15592 5.81558C9.74216 6.40183 9.74216 7.35222 9.15592 7.93747C8.56967 8.52271 7.61928 8.52371 7.03403 7.93747C6.44879 7.35122 6.44779 6.40083 7.03403 5.81558C7.61928 5.22934 8.56967 5.22934 9.15592 5.81558"
        stroke="#BDC1C7" stroke-width="1.3" stroke-linecap="round" stroke-linejoin="round" />
    <path
        d="M13.1902 6.99808V6.99808C13.1902 8.38266 12.575 9.6942 11.5125 10.5806L9.84185 11.9732C9.17557 12.5284 8.67836 13.2577 8.40425 14.081L8.09512 15.0054L7.78699 14.08C7.51288 13.2577 7.01467 12.5274 6.3494 11.9722L4.6787 10.5796C3.61426 9.6932 3 8.38166 3 6.99808V6.99808V7.02409C3 3.84477 5.6321 2 8.09512 2C10.5581 2 13.1902 3.84477 13.1902 7.02409"
        stroke="#BDC1C7" stroke-width="1.3" stroke-linecap="round" stroke-linejoin="round" />
</svg>