<svg width="24" height="24" viewBox="0 0 24 24" fill="none" xmlns="http://www.w3.org/2000/svg">
    <g clip-path="url(#clip0_975_3339)">
        <path
            d="M14.6079 10.559C14.5953 10.559 14.5803 10.559 14.5677 10.5566C14.5577 10.5566 14.5477 10.5566 14.5376 10.5566C14.5151 10.5566 14.4925 10.5566 14.4674 10.5566H7.75C5.67809 10.5566 4 8.92445 4 6.91471V14.8562C4 17.3435 6.07692 19.3581 8.63545 19.3581H10.9858H15.25C17.3219 19.3581 19 20.9878 19 23V15.0584C19 12.6273 17.0886 10.6443 14.6079 10.559Z"
            fill="#D3D6D9" />
        <path
            d="M15.3554 0.999969C14.801 2.3398 13.4515 3.28499 11.8763 3.28499H7.75C5.67809 3.28499 4 4.91471 4 6.92689C4 8.93907 5.67809 10.5688 7.75 10.5688H11.5C13.6296 10.5688 15.3554 8.89278 15.3554 6.82457V0.999969Z"
            fill="#BDC1C7" />
    </g>
    <defs>
        <clipPath id="clip0_975_3339">
            <rect width="15" height="22" fill="white" transform="translate(4 0.999969)" />
        </clipPath>
    </defs>
</svg>