<svg width="160" height="90" viewBox="0 0 160 90" fill="none" xmlns="http://www.w3.org/2000/svg">
<path d="M152.106 39.2934C151.369 34.8953 149.772 30.6193 147.316 26.9542C142.157 19.0132 133.189 13.8821 123.731 13.1491C111.201 12.1717 100.637 18.5245 92.7758 27.0764C92.7758 27.0764 88.108 32.0854 83.0716 37.8273C82.0889 36.9721 72.8761 28.909 69.928 26.2212C60.9609 18.7689 52.1166 12.5382 39.9557 13.0269C35.165 13.2713 30.3743 14.3708 26.1978 16.4477C21.8985 18.5246 18.0906 21.4566 15.1425 24.9995C9.12342 32.0854 6.421 41.7367 7.89505 50.6551C8.63207 55.1754 10.229 59.4513 12.6857 63.1164C17.8449 71.0574 26.812 76.1885 36.2705 76.9215C48.8 77.7767 59.364 71.5461 67.2256 62.8721C67.2256 62.8721 71.8934 57.8631 76.9298 52.1211C77.9125 52.9763 87.1253 61.0395 90.0734 63.7272C98.7948 71.1796 107.639 77.5324 119.8 76.9215C124.591 76.6772 129.381 75.5777 133.558 73.5008C137.857 71.4239 141.665 68.4919 144.613 64.9489C150.878 57.8631 153.58 48.2117 152.106 39.2934ZM64.7688 60.673C59.364 66.5371 53.9591 71.9126 45.1148 72.8899C30.7428 74.6003 17.1079 64.4603 16.4937 49.7999C16.248 43.2028 18.5819 36.7278 23.1269 32.2075C29.1459 26.2212 38.1131 24.1443 45.9747 27.4429C53.0993 30.375 59.7325 36.6056 65.383 41.6146C67.9626 43.9358 71.5249 47.1122 74.473 49.6778C69.191 55.6641 64.7688 60.5508 64.7688 60.673ZM136.752 57.8631C130.733 63.8494 121.765 65.9263 113.904 62.6277C106.779 59.6956 100.146 53.465 94.4955 48.4561C91.9159 46.1348 88.3537 42.9584 85.4055 40.3929C90.6876 34.5287 95.1097 29.642 95.2326 29.5198C100.637 23.6557 106.042 18.2802 114.887 17.3029C129.136 15.4703 142.894 25.6104 143.508 40.2707C143.753 46.8679 141.297 53.3428 136.752 57.8631Z" fill="white"/>
</svg>
