<svg width="24" height="24" viewBox="0 0 24 24" fill="none" xmlns="http://www.w3.org/2000/svg">
    <path
        d="M11.0752 2.08638C9.97966 2.32642 8.98872 3.13271 8.45324 4.20982C7.98547 5.16998 7.90546 5.57621 7.94854 6.85643L7.98547 7.93969L7.66542 8.12434C7.25919 8.35207 7.24688 8.43208 7.43769 9.55227C7.59156 10.4755 7.66542 10.6109 8.04087 10.7279C8.18243 10.7648 8.29322 10.8263 8.29322 10.851C8.29322 11.0418 8.55172 12.3712 8.61943 12.5312C8.66867 12.642 8.83485 12.8882 8.99488 13.0729L9.28416 13.4114L9.26569 14.0269L9.24723 14.6424L7.80082 15.1532C6.14516 15.7318 5.78202 15.898 5.1973 16.3411C4.4464 16.9074 3.874 17.7383 3.46777 18.8585C3.35083 19.1785 3.19696 19.5909 3.12925 19.7694L3 20.0956L3.44931 20.3049C4.53873 20.8096 6.66217 21.4189 8.28091 21.6897C10.8044 22.1144 13.7095 22.1021 16.3192 21.659C18.018 21.3758 19.5875 20.9265 20.6215 20.4465C21.157 20.1941 21.1631 20.1879 21.12 20.0033C21.0523 19.6832 20.3691 18.0584 20.1599 17.7014C19.7475 17.0182 18.9412 16.2796 18.2026 15.9041C18.0487 15.8241 17.2486 15.5225 16.4177 15.2271L14.9097 14.6978L14.8913 14.1007L14.8728 13.4976L15.2113 13.1037C15.5745 12.6728 15.6606 12.4205 15.8022 11.3495C15.8453 10.9925 15.9007 10.8079 15.9684 10.7648C16.3315 10.5371 16.3561 10.4878 16.5223 9.56458C16.6146 9.04142 16.6639 8.59827 16.6393 8.49979C16.6208 8.40746 16.5039 8.27206 16.3931 8.1982L16.1838 8.06279L16.2207 6.91798C16.2454 5.89011 16.2392 5.73008 16.1161 5.25615C15.5929 3.1881 14.1034 1.98174 12.0846 2.00021C11.74 2.00021 11.2907 2.04329 11.0752 2.08638Z"
        fill="#D3D6D9" />
</svg>