<svg width="24" height="24" viewBox="0 0 24 24" fill="none" xmlns="http://www.w3.org/2000/svg">
    <path
        d="M10.8482 2.0389C10.2758 2.14458 9.95412 2.29722 9.64078 2.60641C9.53216 2.71992 9.40682 2.8843 9.36087 2.97823L9.28149 3.14653L8.97651 3.1661C8.08246 3.22089 7.51427 3.89799 7.35969 5.08781C7.28867 5.65924 7.38058 6.44593 7.5853 6.99779C7.63961 7.14651 7.66885 7.26784 7.65214 7.26784C7.63125 7.26784 7.60201 7.25219 7.58947 7.2287C7.57694 7.20914 7.48921 7.17391 7.39729 7.15043C7.02965 7.05649 6.76645 7.27567 6.68289 7.74534C6.59516 8.25023 6.85836 9.00169 7.26778 9.4283C7.40983 9.57312 7.59365 9.85883 7.86103 10.3559C8.95562 12.3755 9.975 13.4048 11.2451 13.7688C11.642 13.8823 12.2603 13.8901 12.6655 13.7923C13.9565 13.4713 15.0719 12.3481 16.1958 10.2385C16.3754 9.90188 16.5885 9.56529 16.6762 9.47527C17.4073 8.72772 17.5494 7.39309 16.9227 7.15043C16.8057 7.10346 16.7639 7.10737 16.6052 7.15825C16.4297 7.21696 16.4214 7.21696 16.4423 7.15825C16.7389 6.30112 16.7472 5.37744 16.4715 4.64946C16.2919 4.16414 16.0412 3.80797 15.5942 3.38919C14.9967 2.8295 14.3116 2.46943 13.4133 2.24242C12.607 2.03499 11.3913 1.94105 10.8482 2.0389Z"
        fill="#D3D6D9" />
    <path
        d="M7.75774 14.1758C5.9028 14.7707 4.71212 15.2482 4.39461 15.5144C3.80136 16.0114 3.88073 16.8764 4.60767 17.8823C5.25106 18.7668 6.62138 19.9762 7.79952 20.7002C10.302 22.2384 12.7335 22.4106 15.2569 21.2208C16.0883 20.8294 17.0032 20.2267 17.7928 19.5496C19.8525 17.7844 20.521 16.2697 19.5851 15.4987C19.276 15.2443 17.9098 14.7042 16.1468 14.1406L15.353 13.8901L15.2987 14.0506C15.1358 14.5711 14.7639 15.1269 14.3253 15.5144C13.1053 16.5789 11.2086 16.665 9.85083 15.714C9.35785 15.3656 8.97766 14.8607 8.76042 14.2502L8.63091 13.8901L7.75774 14.1758Z"
        fill="#D3D6D9" />
</svg>