<svg width="16" height="16" viewBox="0 0 16 16" fill="none" xmlns="http://www.w3.org/2000/svg">
    <path fill-rule="evenodd" clip-rule="evenodd"
        d="M7.17081 8.82952C6.32249 7.98125 5.68298 7.03147 5.2581 6.06792C5.16819 5.86419 5.22112 5.62566 5.37846 5.46833L5.97228 4.87527C6.4588 4.38878 6.4588 3.70074 6.03391 3.27588L5.18269 2.4247C4.61642 1.85846 3.69849 1.85846 3.13221 2.4247L2.65947 2.89742C2.1222 3.43465 1.89816 4.2097 2.04317 4.97822C2.40135 6.8727 3.50199 8.94698 5.27767 10.7225C7.05335 12.4981 9.12776 13.5987 11.0223 13.9569C11.7909 14.1019 12.566 13.8778 13.1033 13.3406L13.5753 12.8686C14.1416 12.3024 14.1416 11.3845 13.5753 10.8182L12.7248 9.9678C12.2999 9.54294 11.6111 9.54294 11.1869 9.9678L10.5322 10.6232C10.3749 10.7805 10.1363 10.8335 9.93258 10.7436C8.96897 10.318 8.01914 9.67779 7.17081 8.82952Z"
        stroke="#BDC1C7" stroke-width="1.3" stroke-linecap="round" stroke-linejoin="round" />
</svg>