<svg width="16" height="16" viewBox="0 0 16 16" fill="none" xmlns="http://www.w3.org/2000/svg">
    <path
        d="M14 10.9467V13.3041C14 13.6541 13.7294 13.9445 13.3803 13.9691C13.0887 13.9897 12.8509 14 12.6667 14C6.7756 14 2 9.2244 2 3.33333C2 3.14914 2.0103 2.91125 2.0309 2.61967C2.05558 2.27059 2.34596 2 2.69591 2H5.0534C5.22452 2 5.36784 2.12961 5.38502 2.29987C5.40045 2.45271 5.41479 2.57543 5.42805 2.66801C5.5629 3.60981 5.83835 4.50624 6.23247 5.33535C6.29573 5.46843 6.25447 5.62773 6.13457 5.71337L4.6957 6.7412C5.57168 8.7874 7.2126 10.4283 9.2588 11.3043L10.2847 9.86793C10.3715 9.7466 10.5327 9.70487 10.6673 9.7688C11.4964 10.1626 12.3927 10.4377 13.3344 10.5723C13.4264 10.5855 13.5483 10.5997 13.7001 10.615C13.8704 10.6322 14 10.7755 14 10.9467Z"
        fill="#D3D6D9" />
</svg>