<svg width="24" height="24" viewBox="0 0 24 24" fill="none" xmlns="http://www.w3.org/2000/svg">
    <g id="Tapbar / Profile">
        <path id="User" fill-rule="evenodd" clip-rule="evenodd"
            d="M2 12C2 6.47715 6.47715 2 12 2C17.5228 2 22 6.47715 22 12C22 17.5228 17.5228 22 12 22C6.47715 22 2 17.5228 2 12ZM11.9999 13.5713C15.6864 13.5713 18.8094 14.4638 18.8094 15.8809C18.8094 17.0082 16.4823 19.857 11.9999 19.857C7.51749 19.857 5.19038 17.0082 5.19038 15.882C5.19038 14.4638 8.31341 13.5713 11.9999 13.5713ZM11.9999 5.26375C13.7363 5.26375 15.1428 6.67018 15.1428 8.40661C15.1428 10.143 13.7363 11.5495 11.9999 11.5495C10.2635 11.5495 8.85705 10.143 8.85705 8.40661C8.85705 6.67018 10.2635 5.26375 11.9999 5.26375Z"
            fill="#D3D6D9" />
    </g>
</svg>