<svg width="32" height="32" viewBox="0 0 32 32" fill="none" xmlns="http://www.w3.org/2000/svg">
    <path
        d="M8.83836 7.00688C9.49218 6.0631 10.5673 5.5 11.7154 5.5H26C27.933 5.5 29.5 7.067 29.5 9V23C29.5 24.933 27.933 26.5 26 26.5H11.7154C10.5673 26.5 9.49218 25.9369 8.83836 24.9931L3.98902 17.9931C3.15843 16.7942 3.15843 15.2058 3.98902 14.0069L8.83836 7.00688Z"
        stroke="#262729" />
    <path fill-rule="evenodd" clip-rule="evenodd"
        d="M18.4853 15.1515L22.3037 11.3331L23.1522 12.1816L19.3338 16L23.1522 19.8184L22.3037 20.6669L18.4853 16.8485L14.6669 20.6669L13.8184 19.8184L17.6368 16L13.8184 12.1816L14.6669 11.3331L18.4853 15.1515Z"
        fill="#262729" />
</svg>