<svg width="15" height="15" viewBox="0 0 15 15" fill="none" xmlns="http://www.w3.org/2000/svg">
    <g id="5345 1">
        <path id="Vector"
            d="M6.5 1C5.4122 1 4.34884 1.32257 3.44437 1.92692C2.5399 2.53126 1.83495 3.39025 1.41866 4.39524C1.00238 5.40023 0.893465 6.5061 1.10568 7.573C1.3179 8.63989 1.84173 9.6199 2.61092 10.3891C3.3801 11.1583 4.36011 11.6821 5.42701 11.8943C6.4939 12.1065 7.59977 11.9976 8.60476 11.5813C9.60975 11.1651 10.4687 10.4601 11.0731 9.55563C11.6774 8.65116 12 7.5878 12 6.5C11.9999 5.04134 11.4204 3.64244 10.389 2.61101C9.35756 1.57959 7.95866 1.00009 6.5 1V1Z"
            stroke="#BDC1C7" stroke-width="1.5" stroke-miterlimit="10" />
        <path id="Vector_2" d="M11 11L13 13L13.5 13.5" stroke="#BDC1C7" stroke-width="1.5"
            stroke-miterlimit="10" stroke-linecap="round" />
    </g>
</svg>