<svg width="24" height="24" viewBox="0 0 24 24" fill="none" xmlns="http://www.w3.org/2000/svg">
    <path
        d="M19.3449 9.55637H19.279L18.8833 8.69927L18.9493 8.63329C20.0702 6.12787 20.0042 6.06204 19.8064 5.86422L18.3559 4.41372C18.29 4.28189 18.1582 4.21605 18.0264 4.21605C17.8946 4.21605 17.6968 4.21605 15.521 5.20495L15.455 5.27093L14.5321 4.8753L14.4661 4.80932C13.4772 2.23807 13.3453 2.23807 13.0816 2.23807H10.9718C10.7081 2.23807 10.5761 2.23807 9.65321 4.80932V4.8753L8.73014 5.27079H8.6643C7.21379 4.61151 6.29086 4.34772 6.09305 4.34772C6.02707 4.34772 5.89524 4.4137 5.82939 4.4137L4.31291 5.86421C4.1151 5.99604 4.04912 6.128 5.23598 8.5673L5.30196 8.63328L4.90633 9.49038H4.84035C2.20313 10.4793 2.20312 10.6113 2.20312 10.8749V12.9187C2.20312 13.1824 2.20313 13.3144 4.84035 14.2373H4.90633L5.30196 15.0944L5.23598 15.1604C4.1151 17.7976 4.18107 17.8634 4.37888 18.0613L5.82939 19.5118C5.89537 19.5777 6.0272 19.6436 6.09305 19.6436C6.15903 19.6436 6.42268 19.6436 8.59846 18.6547L8.66444 18.5887L9.58751 18.9843V19.0503C10.6424 21.6216 10.7084 21.6216 10.972 21.6216H13.0818C13.3455 21.6216 13.4775 21.6216 14.4004 19.0503V18.9843L15.3235 18.6547H15.3892C16.8397 19.314 17.7626 19.5778 17.9604 19.5778C18.0264 19.5778 18.1582 19.5118 18.2241 19.5118L19.7404 18.0613C19.9383 17.8635 20.0041 17.7976 18.8174 15.3582L18.7514 15.2922L19.147 14.4351H19.213C21.8502 13.4462 21.8502 13.3142 21.8502 13.0506V11.0068C21.9822 10.6113 21.9822 10.4793 19.3449 9.55637ZM12.0928 15.2921C10.2468 15.2921 8.73024 13.7758 8.73024 11.9956C8.73024 10.1496 10.2466 8.69913 12.0928 8.69913C13.9387 8.69913 15.4553 10.2155 15.4553 11.9956C15.4553 13.7757 14.0048 15.2921 12.0928 15.2921Z"
        fill="#D3D6D9" />
</svg>