<svg width="24" height="24" viewBox="0 0 24 24" fill="none" xmlns="http://www.w3.org/2000/svg">
    <path fill-rule="evenodd" clip-rule="evenodd"
        d="M4 4.00006C4 2.34321 5.34315 1.00006 7 1.00006H17C18.6569 1.00006 20 2.34321 20 4.00006V20.0001C20 21.6569 18.6569 23.0001 17 23.0001H7C5.34315 23.0001 4 21.6569 4 20.0001V4.00006ZM13 19.0001C13 19.5523 12.5523 20.0001 12 20.0001C11.4477 20.0001 11 19.5523 11 19.0001C11 18.4478 11.4477 18.0001 12 18.0001C12.5523 18.0001 13 18.4478 13 19.0001ZM9.5 4.00006C9.22386 4.00006 9 4.22392 9 4.50006C9 4.7762 9.22386 5.00006 9.5 5.00006H14.5C14.7761 5.00006 15 4.7762 15 4.50006C15 4.22392 14.7761 4.00006 14.5 4.00006H9.5Z"
        fill="#D3D6D9" />
</svg>