<svg width="24" height="24" viewBox="0 0 24 24" fill="none" xmlns="http://www.w3.org/2000/svg">
    <g id="Frame 7189">
        <g id="Group 2406">
            <path id="Vector" d="M3 6.00873H5H21" stroke="#E62424" stroke-width="1.5"
                stroke-linecap="round" stroke-linejoin="round" />
            <path id="Vector_2"
                d="M8 6.00875V4.00438C8 3.47278 8.21071 2.96296 8.58579 2.58707C8.96086 2.21117 9.46957 2 10 2H14C14.5304 2 15.0391 2.21117 15.4142 2.58707C15.7893 2.96296 16 3.47278 16 4.00438V6.00875M19 6.00875V20.0394C19 20.571 18.7893 21.0808 18.4142 21.4567C18.0391 21.8326 17.5304 22.0438 17 22.0438H7C6.46957 22.0438 5.96086 21.8326 5.58579 21.4567C5.21071 21.0808 5 20.571 5 20.0394V6.00875H19Z"
                stroke="#E62424" stroke-width="1.5" stroke-linecap="round" stroke-linejoin="round" />
            <path id="Vector_3" d="M10 11.0197V17.0328" stroke="#E62424" stroke-width="1.5"
                stroke-linecap="round" stroke-linejoin="round" />
            <path id="Vector_4" d="M14 11.0197V17.0328" stroke="#E62424" stroke-width="1.5"
                stroke-linecap="round" stroke-linejoin="round" />
        </g>
    </g>
</svg>