<svg width="334" height="385" viewBox="0 0 334 385" fill="none" xmlns="http://www.w3.org/2000/svg">
<path fill-rule="evenodd" clip-rule="evenodd" d="M141.353 38.5C6.95289 116.096 -39.096 287.953 38.5 422.353C114.799 554.507 282.235 601.239 415.584 528.993C416.363 528.574 417.14 528.15 417.916 527.721C418.77 527.259 419.62 526.784 420.467 526.295C420.565 526.238 420.664 526.181 420.763 526.124C420.874 526.06 420.985 525.996 421.095 525.932C421.185 525.88 421.275 525.828 421.365 525.776C421.485 525.707 421.605 525.638 421.724 525.569L421.929 525.451L421.963 525.431L421.991 525.415L422.023 525.396L422.353 525.206C556.753 447.61 602.802 275.753 525.206 141.353C447.61 6.95288 275.753 -39.096 141.353 38.5ZM433.529 514.622C429.368 517.329 425.112 519.94 420.763 522.451C414.879 525.848 408.923 529.005 402.905 531.926C382.959 535.076 362.235 525.938 351.534 507.404C337.658 483.369 345.893 452.636 369.927 438.759C393.962 424.882 424.696 433.117 438.572 457.152C449.438 475.971 446.747 498.897 433.529 514.622ZM435.109 513.588C447.485 497.743 449.741 475.346 439.071 456.865C425.035 432.554 393.95 424.225 369.64 438.261C345.33 452.296 337 483.381 351.036 507.691C361.539 525.883 381.59 535.126 401.204 532.744C400.407 533.125 399.609 533.501 398.81 533.873C367.143 541.062 333.172 527.287 316.083 497.688C295.07 461.292 307.54 414.753 343.936 393.74C380.332 372.727 426.871 385.197 447.884 421.593C465.252 451.676 459.745 488.69 436.759 512.49C436.211 512.858 435.66 513.224 435.109 513.588ZM448.638 421.157C465.309 450.032 461.144 485.218 440.808 509.307C472.843 477.495 480.832 426.974 457.195 386.034C429.046 337.277 366.701 320.572 317.944 348.722C269.188 376.871 252.483 439.216 280.632 487.972C304.201 528.795 351.742 547.149 395.208 535.518L395.336 535.461C364.381 540.91 331.955 526.921 315.329 498.124C294.075 461.311 306.688 414.239 343.5 392.986C380.313 371.732 427.385 384.345 448.638 421.157ZM447.734 503.516C487.283 463.362 496.943 400.304 467.394 349.124C431.91 287.663 353.32 266.605 291.86 302.089C230.399 337.574 209.341 416.163 244.825 477.624C273.165 526.71 329 550.025 381.644 539.347C341.774 544.288 300.973 525.538 279.621 488.556C251.149 439.241 268.046 376.183 317.361 347.711C366.676 319.239 429.734 336.135 458.206 385.45C480.534 424.122 474.961 471.247 447.734 503.516ZM468.668 348.388C496.301 396.249 490.034 454.38 457.316 494.976C502.831 445.969 513.3 371.188 478.11 310.238C434.895 235.386 339.182 209.74 264.331 252.956C189.479 296.171 163.833 391.884 207.049 466.735C240.836 525.256 306.711 553.7 369.618 542.674C320.174 547.811 270.013 524.192 243.551 478.359C207.66 416.195 228.959 336.706 291.124 300.815C353.288 264.924 432.778 286.223 468.668 348.388ZM471.921 479.802C517.45 422.873 526.068 341.617 487.422 274.679C437.07 187.466 325.552 157.585 238.339 207.937C151.127 258.289 121.246 369.807 171.598 457.02C210.245 523.958 284.924 557.122 356.991 546.157C297.438 551.562 237.36 522.82 205.497 467.631C161.787 391.923 187.726 295.114 263.435 251.404C339.144 207.694 435.952 233.633 479.662 309.342C511.525 364.53 506.378 430.93 471.921 479.802ZM142.055 448.923C182.771 519.445 259.257 556.44 335.364 550.221C269.649 552.25 204.964 518.987 169.79 458.064C118.861 369.853 149.084 257.058 237.295 206.129C325.506 155.2 438.301 185.424 489.23 273.635C524.404 334.558 520.868 407.209 486.254 463.105C529.693 400.303 535.897 315.568 495.181 245.046C438.882 147.533 314.193 114.122 216.68 170.422C119.167 226.721 85.7561 351.41 142.055 448.923ZM493.585 456.195C542.581 385.819 549.689 290.64 503.976 211.462C440.936 102.275 301.319 64.8646 192.132 127.904C82.9449 190.943 45.5346 330.56 108.574 439.747C154.287 518.925 240.268 560.358 325.714 553.115C252.048 555.587 179.46 518.38 140.034 450.09C83.0898 351.461 116.883 225.344 215.512 168.4C314.142 111.456 440.259 145.249 497.203 243.879C536.63 312.168 532.558 393.635 493.585 456.195ZM74.7364 429.938C123.294 514.043 212.782 559.782 303.513 556.523C224.765 555.507 148.545 514.208 106.31 441.054C42.549 330.617 80.3877 189.401 190.825 125.64C301.262 61.879 442.478 99.7177 506.239 210.155C550.826 287.381 545.732 379.657 500.873 449.975C556.388 371.683 564.788 265.088 513.657 176.527C443.68 55.3228 288.696 13.7951 167.491 83.7726C46.2867 153.75 4.7589 308.734 74.7364 429.938ZM291.233 559.568C192.049 562.832 94.3407 512.71 41.2549 420.763C-35.4626 287.884 10.065 117.972 142.944 41.2549C275.822 -35.4626 445.734 10.065 522.451 142.944C575.537 234.891 570.09 344.57 517.672 428.834C560.45 352.552 563.072 256.313 516.17 175.077C445.391 52.4842 288.633 10.4809 166.04 81.2597C43.448 152.038 1.44476 308.797 72.2235 431.389C119.125 512.626 203.782 558.474 291.233 559.568Z" fill="url(#paint0_linear_388_4374)"/>
<defs>
<linearGradient id="paint0_linear_388_4374" x1="422.353" y1="525.206" x2="141.353" y2="38.5" gradientUnits="userSpaceOnUse">
<stop stop-color="white"/>
<stop offset="1" stop-color="white" stop-opacity="0"/>
</linearGradient>
</defs>
</svg>
