<svg width="24" height="24" viewBox="0 0 24 24" fill="none" xmlns="http://www.w3.org/2000/svg">
    <path
        d="M11.565 2.117C10.7752 2.31704 10.1027 2.66863 9.44866 3.22027C9.21419 3.42031 9.0476 3.51124 8.86249 3.53548C8.05421 3.65672 6.7338 4.64481 6.32658 5.43892C6.12296 5.83294 5.82063 6.74222 5.61084 7.5727C4.89511 10.4521 4.97532 12.8223 5.83914 14.5439C6.07977 15.0167 6.22785 15.2167 6.65976 15.6411C6.94976 15.926 7.25209 16.1988 7.3323 16.2412L7.48656 16.32L7.34465 16.1139C6.97444 15.5683 6.62274 14.6591 6.6721 14.356C6.68444 14.2408 6.72763 14.2772 6.92508 14.5924C7.21507 15.0591 7.94315 15.8169 8.47378 16.2109L8.88101 16.514L8.86249 16.9747C8.84398 17.3505 8.80079 17.5203 8.62186 17.8961C8.44293 18.2659 8.37506 18.3507 8.2825 18.3265C8.17761 18.2962 6.97444 18.7326 5.5368 19.3146L5 19.5267L5.16659 19.6662C5.51829 19.9571 6.39445 20.4967 7.0238 20.8058C8.65271 21.6242 10.2631 21.9939 12.1327 22C13.9775 22 15.5015 21.6666 17.1181 20.9089C17.7413 20.6118 19 19.842 19 19.7571C19 19.654 15.4398 18.2841 15.2794 18.3265C15.1869 18.3507 15.1313 18.278 14.9833 17.9628C14.7488 17.4536 14.6007 16.8898 14.6501 16.6777C14.6747 16.5685 14.7611 16.4655 14.903 16.3928C15.1807 16.2473 15.6003 15.7926 15.8964 15.3198C16.0445 15.0834 16.1371 14.9864 16.1679 15.041C16.2111 15.1258 16.3839 16.023 16.4394 16.5019L16.4764 16.7868L16.6183 16.6231C17.0132 16.1442 17.5192 15.241 17.8092 14.4893C18.0498 13.8528 18.3089 12.7071 18.42 11.7918C18.6853 9.561 18.2041 6.51793 17.297 4.67512C16.6862 3.43849 15.2547 2.40797 13.6937 2.08063C13.1199 1.95939 12.0956 1.97758 11.565 2.117Z"
        fill="#D3D6D9" />
</svg>